PathFileType	4	(X/Y/Z)	RBDS022\RBDS022runT25.trc
DataRate	CameraRate	NumFrames	NumMarkers	Units	OrigDataRate	OrigDataStartFrame	OrigNumFrames
150.000000	150.000000	6	33	mm	150.000000	0	4500
Frame#	Time	L.ASIS			L.Heel.Bottom			L.Heel.Lateral			L.Heel.Top			L.Iliac.Crest			L.MT1			L.MT5			L.PSIS			L.Shank.Bottom.Lateral			L.Shank.Bottom.Medial			L.Shank.Top.Lateral			L.Shank.Top.Medial			L.Thigh.Bottom.Lateral			L.Thigh.Bottom.Medial			L.Thigh.Top.Lateral			L.Thigh.Top.Medial			R.ASIS			R.ASY			R.Heel.Bottom			R.Heel.Lateral			R.Heel.Top			R.Iliac.Crest			R.MT1			R.MT5			R.PSIS			R.Shank.Bottom.Lateral			R.Shank.Bottom.Medial			R.Shank.Top.Lateral			R.Shank.Top.Medial			R.Thigh.Bottom.Lateral			R.Thigh.Bottom.Medial			R.Thigh.Top.Lateral			R.Thigh.Top.Medial			
		X1	Y1	Z1	X2	Y2	Z2	X3	Y3	Z3	X4	Y4	Z4	X5	Y5	Z5	X6	Y6	Z6	X7	Y7	Z7	X8	Y8	Z8	X9	Y9	Z9	X10	Y10	Z10	X11	Y11	Z11	X12	Y12	Z12	X13	Y13	Z13	X14	Y14	Z14	X15	Y15	Z15	X16	Y16	Z16	X17	Y17	Z17	X18	Y18	Z18	X19	Y19	Z19	X20	Y20	Z20	X21	Y21	Z21	X22	Y22	Z22	X23	Y23	Z23	X24	Y24	Z24	X25	Y25	Z25	X26	Y26	Z26	X27	Y27	Z27	X28	Y28	Z28	X29	Y29	Z29	X30	Y30	Z30	X31	Y31	Z31	X32	Y32	Z32	X33	Y33	Z33	

1	0	2227.840899570014	917.6413720039398	913.0258180443659	1884.447911569906	250.7987461283233	969.3558244101914	1917.930414026201	251.0000360885424	920.983840801368	1924.562526251276	273.4592948084516	972.5752807334372	2156.919690297405	991.7995111581878	857.7791872103505	2034.901261166961	92.40013630076069	962.7994118469165	2000.446166528107	132.2730208703542	861.5089478178294	2055.512483861949	961.873885295858	973.462745140638	2036.403734585622	300.083760809421	897.97672910425	2015.344415550739	331.0872716475163	940.1180887193408	2092.040053850438	356.6754737811181	885.9649494788825	2072.506995047659	386.7103949674658	925.9691206100899	2282.758884460289	576.3631408889132	856.403236882288	2224.076507663014	551.54277516231	892.0636652797922	2233.858326332198	673.1796249548363	842.7908111087081	2176.292837315981	648.6452466236973	873.8440562773523	2209.880876651674	939.2708199269952	1150.381540310943	2081.602261515289	80.38004760395891	1049.420354475576	1895.021503790678	45.8631467570934	1013.791557129555	1918.989270176349	64.99998498970227	1062.756916825505	1908.399073507584	88.13066719792187	1013.508355509221	2148.221470874124	1001.675510147341	1183.234020033085	2109.248762321065	36.18003757490545	1008.124198021197	2066.955199804351	38.29864000567999	1118.86293084663	2053.541253226291	968.8178144817848	1057.004745207694	1996.037941868906	171.1751989121064	1092.796647163755	1972.276251461045	198.596695136893	1056.67980009753	2035.880470973286	241.9360968854831	1118.154901144155	2006.545330173812	267.7245363942023	1081.771307933102	2179.816916225521	555.9366734260741	1171.198076130429	2116.48763332694	553.0963802395435	1138.136266930243	2161.190414199954	662.7533125804885	1195.927011684654	2099.757729733636	658.7570847144152	1165.109991832886	
2	0.006666666666666667	2227.6470516146	921.920839226396	912.5886382344861	1899.816160256322	236.636469289191	968.9779351428494	1933.25961655369	238.457809736186	920.6821445847149	1938.599973521773	261.3739073985011	972.2232563216792	2156.762922305422	996.5179923508529	857.2627159412133	2058.623437193934	86.67991942456396	963.144049616193	2021.970011828481	124.3908366551111	861.5809454327168	2055.238595726943	966.2255079057549	972.9968509739165	2049.201352754314	293.4690215275903	897.8064469555995	2026.714536570293	323.4388540296218	939.7131580431641	2102.002828273418	352.5974933674787	885.5627137560806	2081.06463722312	381.7326427204773	925.5064029447083	2286.115361663329	583.0896437834358	855.576766209778	2227.69536340903	557.3909965380996	891.0307259323685	2235.891243678775	679.1279736223499	841.7616290242834	2178.479528406776	653.6328043943964	872.3113542235664	2209.91081805563	942.1158328859127	1150.060711445656	2066.279507739596	80.86032259480154	1049.875537760738	1879.325034879719	50.94546358702524	1014.035855251942	1903.671233549085	69.20173135547672	1063.116554080276	1893.411230920182	92.97665607308379	1014.105209535157	2148.947310137049	1005.019391457082	1182.939931905201	2092.253004849813	36.3881799196788	1008.113309476576	2050.788486236173	38.56803833130574	1118.857587530469	2053.724089671972	972.969946117779	1056.758944612528	1981.528392937673	174.812733290181	1093.030031849481	1957.955807660533	202.3222277552281	1056.932509516079	2021.928727923226	245.3025743171222	1118.332533820045	1992.611365643496	271.2764712055605	1081.970064191346	2170.217175937195	558.9273832097203	1170.398226391345	2106.93927571743	557.8866201385315	1137.333887879209	2154.831305798287	666.0861900456482	1194.975586080615	2093.287180907691	663.8241610813218	1164.305672269437	
3	0.01333333333333333	2227.479977269003	926.2803072589505	912.119870739231	1915.447398710101	222.4313865918776	968.6425892968896	1948.811128956612	225.8721402339868	920.4086505093281	1952.857959502519	249.2311047388733	971.8972567253486	2156.642133192712	1001.304625557184	856.7259669228696	2082.462706654392	81.10589944752792	963.5314963815302	2043.655285360011	116.5709297780823	861.7021325793249	2055.000029546427	970.6167368328857	972.5285843446566	2062.090553148661	286.815858209387	897.6515787351997	2038.184762392674	315.727191978483	939.3284342345336	2111.985944719786	348.4466494267031	885.1646262216553	2089.658649029587	376.6529780862756	925.0521292607167	2289.288373995064	589.7534291706971	854.7946807611322	2231.109898680319	563.2267073302542	890.0404560094839	2237.818272813315	685.0548995413477	840.7663545500692	2180.55029282016	658.6604827234323	870.8392066811844	2209.996282472961	944.9940021747033	1149.693384248242	2051.054723312842	81.35654247509139	1050.362351488961	1863.748041281315	56.21448435826514	1014.281266588464	1888.469478966328	73.55607587469875	1063.479279197633	1878.579725696589	97.97870334505559	1014.704795230903	2149.742239033337	1008.4272384098	1182.616032638041	2075.287501009992	36.62746122953785	1008.120253760284	2034.654905788859	38.88109215917634	1118.87524950991	2053.954869385805	977.1470536079657	1056.517364293423	1967.13534212227	178.5630891877043	1093.271633997812	1943.761504624878	206.1537571983342	1057.175522292797	2008.080528133138	248.7880739528521	1118.514184637045	1978.797048185401	274.9367877066574	1082.158761204018	2160.709458426679	562.0079748914027	1169.620447075741	2097.503916022596	562.7563740044246	1136.534083852311	2148.543909112744	669.4942117348905	1194.035761172263	2086.906349229629	668.9533488976542	1163.495990905755	
4	0.02	2227.36656249995	930.7995388661245	911.5939575385423	1931.618743337008	208.1335307970533	968.3880900634705	1964.826644070777	213.1927787524131	920.1892884859863	1967.570873000109	236.9680746141368	971.6205053834547	2156.585152731398	1006.243146553325	856.1573167357097	2106.563174677163	75.81923851712612	964.0152055150035	2065.693931588094	108.8713363335498	861.926866290011	2054.832539867125	975.089350223906	972.0536957473995	2075.180082915357	280.0814128309711	897.5257464848883	2049.869088004671	307.8832746626888	938.9805879870504	2122.02630873142	344.1469774976163	884.7709814630012	2098.336949131498	371.366558947262	924.6085291015127	2292.099128787914	596.291243131267	854.0942396313975	2234.119096598682	569.0350000412325	889.1281532881789	2239.534176128392	690.9380654787603	839.834637147637	2182.388956331913	663.7633733167164	869.4807215624012	2210.189795572316	947.9391872210332	1149.238054246436	2036.014102773151	81.88076554642815	1050.906318324137	1848.398476860211	61.84445906449453	1014.534094607227	1873.489229656321	78.20488939759097	1063.852655516554	1864.048198913402	103.2829741991216	1015.314524445247	2150.68341996753	1011.962017221305	1182.233237778628	2058.384290168252	36.92468675165552	1008.160233000462	2018.582185738584	39.27376567949442	1118.93796189668	2054.278686650245	981.3750805231158	1056.282390471355	1952.962408073615	182.5297463269807	1093.531755799841	1929.805499848751	210.1862986557199	1057.401347037831	1994.422615440056	252.5055059530583	1118.705033973171	1965.203386692443	278.8057312209007	1082.329030721989	2151.359988787989	565.2755660563646	1168.8889951905	2088.270188220773	567.7943241707645	1135.738673479804	2142.377698666747	673.0586050309438	1193.123451412143	2080.686701934544	674.2163216694531	1162.673718623139	
5	0.02666666666666667	2227.328193870841	935.5334124664731	910.9923369732581	1948.548101417122	193.7250913749343	968.244562236957	1981.497064943205	200.3992184750531	920.0449920472868	1982.922254686154	224.5530227721389	971.4114667713865	2156.607828965008	1011.398900444872	855.5517566874714	2131.023903610678	70.95286860385986	964.6419027936083	2088.229342360699	101.3596558204018	862.3007199196152	2054.76594299346	979.6676823197954	971.5676795979375	2088.551111186972	273.2434929137069	897.4389734897713	2061.854953660592	299.8628996344287	938.6817781722877	2132.149192888829	339.6440450881649	884.3808599647073	2107.134065204889	365.7956285529913	924.1755615005867	2294.391800638	602.6327333975221	853.5067875214025	2236.548764378293	574.787114215399	888.3249615960244	2240.945206910937	696.7421188058397	838.9928783050615	2183.892301312425	668.9545870605792	868.2829697577835	2210.533040017575	950.9712570638376	1148.662629005157	2021.237588919349	82.4436777752455	1051.525409656939	1833.381230841714	67.97134067677842	1014.800000722614	1858.83329946372	83.25938299221927	1064.242449855056	1849.949832066882	109.0016188070713	1015.939602850706	2151.837416371844	1015.668730179311	1181.766113423463	2041.590147662032	37.30114378154164	1008.24413677714	2002.607070745548	39.77797188305603	1119.062313985972	2054.73094827933	985.66603528846	1056.054908027817	1939.108711904476	186.788997155909	1093.817655896666	1916.195174011905	214.4883736140514	1057.602125540899	1981.039455928759	256.539352073525	1118.907683631823	1951.927508869029	282.9567660654923	1082.471914564667	2142.232235722256	568.8016667145005	1168.226504601591	2079.321127435992	573.0624377287193	1134.94985744976	2136.378350470865	676.837337875647	1192.255094045558	2074.693815404747	679.6612756372326	1161.832985055741	
6	0.03333333333333333	2227.379169653838	940.5044268303892	910.3057284687197	1966.385130701112	179.2285572057507	968.2304299712047	1998.956263285586	187.5084452752974	919.9894675031959	1999.037004488576	211.9930197054312	971.2808221492442	2156.711115988949	1016.813167979785	854.9124572196375	2155.891400645068	66.63266185044139	965.449717978282	2111.350396094076	94.11818578849251	862.8582373312763	2054.822806983535	984.3547251318486	971.0656093349887	2102.254279021925	266.3061654693642	897.3960714727572	2074.200410964532	291.6531707879986	938.4378470098435	2142.368998617428	334.9105409980208	883.9916882326631	2116.07120142326	359.8961122432615	923.7500035397234	2296.040742431826	608.6990874453783	853.0541681747504	2238.26015829968	580.4371797938707	887.655259550589	2241.972891950717	702.4153652548284	838.2613441038591	2184.974628149832	674.2192572182247	867.2833171857839	2211.053903593692	954.093378219761	1147.947299144425	2006.790484481021	83.0561705130344	1052.228016335321	1818.793451229661	74.6867232997125	1015.082938310783	1844.596787681819	88.79579690776326	1064.651518343054	1836.400545492258	115.2073550710789	1016.581969174254	2153.256733869973	1019.570094281021	1181.194162698447	2024.962726478877	37.77259279849256	1008.377949854373	1986.770219228058	40.4232078033606	1119.257447827433	2055.334906856575	990.0156210780536	1055.833497321527	1925.663781881726	191.3846700076444	1094.132762072337	1903.027439783761	219.0973258336277	1057.77017928392	1968.009700027986	260.9397257782319	1119.121463575178	1939.058078547922	287.4315159786715	1082.578188214429	2133.385660595486	572.6262456723747	1167.652028567612	2070.731678718265	578.590373756824	1134.16968751959	2130.587148944683	680.8596402342755	1191.446850739501	2068.985806847116	685.3080405259906	1160.969738258746	
